# xmcd CD database file
#
# Track frame offsets:
#	182
#	5990
#	20737
#	35307
#	38070
#	49660
#	54467
#	60522
#	74755
#	90790
#	93490
#	105425
#	108737
#	114757
#	128247
#	146437
#	148547
#	158305
#	162935
#	168257
#	177227
#	190645
#	193107
#	209942
#
# Disc length: 2902 seconds
#
# Revision: 2
# Processed by: cddbd v1.5PL3 Copyright (c) Steve Scherf et al.
# Submitted via: CDex 1.51
#
DISCID=480b5418
DTITLE=Hank Williams - Health and Happiness Shows Disc 2
DYEAR=1949
DGENRE=Country
TTITLE0=Happy Rovin' Cowboy {Theme} (Show 5)
TTITLE1=A Mansion On The Hill
TTITLE2=There'll Be No Teardrops Tonight
TTITLE3=Wagner
TTITLE4=The Prodigal Son
TTITLE5=Sally Goodin
TTITLE6=Happy Rovin' Cowboy {Theme} (Show 6)
TTITLE7=Pan American
TTITLE8=Lovesick Blues
TTITLE9=Arkansas Traveler
TTITLE10=I Saw The Light
TTITLE11=Sally Goodin
TTITLE12=Happy Rovin' Cowboy {Theme} (Show 7)
TTITLE13=Mind Your Own Business
TTITLE14=Wedding Bells
TTITLE15=Cotton-Eyed Joe
TTITLE16=I've Just Told Mama Goodbye
TTITLE17=Sally Goodin
TTITLE18=Happy Rovin' Cowboy {Theme} (Show 8)
TTITLE19=I Can't Get You Off Of My Mind
TTITLE20=I'm So Lonesome I Could Cry
TTITLE21=Fisherman's Hornpipe
TTITLE22=Thy Burdens Are Greater Than Mine
TTITLE23=Sally Goodin
EXTD=YEAR: 1949
EXTT0=
EXTT1=
EXTT2=
EXTT3=
EXTT4=
EXTT5=
EXTT6=
EXTT7=
EXTT8=
EXTT9=
EXTT10=
EXTT11=
EXTT12=
EXTT13=
EXTT14=
EXTT15=
EXTT16=
EXTT17=
EXTT18=
EXTT19=
EXTT20=
EXTT21=
EXTT22=
EXTT23=
PLAYORDER=
